<?xml version="1.0" standalone="no"?>
<!DOCTYPE svg PUBLIC "-//W3C//DTD SVG 20010904//EN"
 "http://www.w3.org/TR/2001/REC-SVG-20010904/DTD/svg10.dtd">
<svg version="1.0" xmlns="http://www.w3.org/2000/svg"
 width="24.000000pt" height="24.000000pt" viewBox="0 0 24.000000 24.000000"
 preserveAspectRatio="xMidYMid meet">

<g transform="translate(0.000000,24.000000) scale(0.100000,-0.100000)"
fill="#000000" stroke="none">
<path d="M130 220 c0 -5 5 -10 10 -10 6 0 10 5 10 10 0 6 -4 10 -10 10 -5 0
-10 -4 -10 -10z"/>
<path d="M18 203 c-15 -4 -18 -17 -18 -84 0 -77 1 -79 24 -79 13 0 23 -6 22
-12 0 -7 4 -13 9 -13 6 0 9 6 9 12 -2 16 28 17 44 1 9 -9 15 -9 24 0 7 7 34
12 60 12 l48 0 0 79 0 79 -30 7 c-16 3 -37 2 -47 -4 -15 -9 -13 -10 10 -5 l28
6 -3 -58 -3 -59 -38 -9 c-23 -6 -51 -6 -75 0 l-37 9 -3 59 -3 58 28 -6 c21 -5
24 -4 13 4 -16 10 -32 11 -62 3z m11 -65 c1 -29 4 -54 6 -56 2 -2 21 -10 42
-17 l38 -14 -52 -1 -53 0 0 70 c0 81 15 95 19 18z m201 -18 l0 -70 -52 0 -53
1 38 14 c21 7 40 15 42 17 2 2 5 27 6 56 4 77 19 63 19 -18z"/>
<path d="M113 176 c9 -7 17 -25 17 -39 0 -55 55 -47 58 8 2 28 -1 35 -15 34
-11 0 -13 -3 -5 -6 19 -7 15 -43 -5 -43 -16 0 -16 -2 -3 -11 13 -9 13 -10 0
-6 -9 2 -15 15 -15 30 1 15 -3 27 -8 27 -4 0 -5 5 -2 10 3 6 -4 10 -17 10 -21
-1 -22 -2 -5 -14z"/>
<path d="M55 170 c-3 -6 1 -7 9 -4 18 7 21 14 7 14 -6 0 -13 -4 -16 -10z"/>
<path d="M70 155 c-15 -8 -19 -14 -10 -14 18 -1 46 16 40 23 -3 2 -16 -2 -30
-9z"/>
<path d="M64 124 c-18 -14 -18 -15 6 -8 24 6 24 6 5 -10 -20 -15 -10 -23 11
-8 12 7 15 42 4 42 -3 0 -15 -7 -26 -16z"/>
</g>
</svg>
